# xmcd CD database file
# Copyright (C) 1995-1998 Ti Kan
#
# Track frame offsets:
#	150
#	11190
#	22390
#	37725
#	53632
#	76947
#	91560
#	109195
#	124635
#	145832
#	160355
#	183020
#	198475
#	209980
#
# Disc length: 3131 seconds
#
# Revision: 3
# Processed by: cddbd v1.4PL0 Copyright (c) Steve Scherf et al.
# Submitted via: CDex 1.30JRelease
#
DISCID=b90c390e
DTITLE=Eric Anderson - Today is The Highway
DYEAR=02
DGENRE=Blues
TTITLE0=Today is The Highway
TTITLE1=Dusty Box Car Wall
TTITLE2=TIme For My Returning
TTITLE3=Plains of Nebrasky-O
TTITLE4=Looking Glass
TTITLE5=Never Comming Home
TTITLE6=Come to My Beside
TTITLE7=Baby Plesae Don't Go
TTITLE8=Everything Ain't Been Said
TTITLE9=Bay of Mexico
TTITLE10=Song to J.C.B.
TTITLE11=Bumblebee
TTITLE12=Boot of Blue
TTITLE13=Rambler's Lament
EXTD=YEAR: 02/11/2003 ID3G:   0
EXTT0=
EXTT1=
EXTT2=
EXTT3=
EXTT4=
EXTT5=
EXTT6=
EXTT7=
EXTT8=
EXTT9=
EXTT10=
EXTT11=
EXTT12=
EXTT13=
PLAYORDER=
